<svg xmlns="http://www.w3.org/2000/svg" viewBox="0 0 64 64" role="img" aria-labelledby="title"><title>Memory Flip icon</title>
  <rect width="64" height="64" rx="12" fill="#14121b"/>
  <rect x="6" y="6" width="52" height="52" rx="10" fill="#211f2f"/>
  <rect x="16" y="14" width="24" height="36" rx="6" fill="#f7f3ff"/>
  <rect x="26" y="18" width="24" height="36" rx="6" fill="#c9c2ff"/>
  <path fill="#ff5f9c" d="M40 28c-2.2 0-4 1.8-4 4 0 3.2 4.2 6 4 6s4-2.8 4-6c0-2.2-1.8-4-4-4Zm-12 4c0-2.2-1.8-4-4-4s-4 1.8-4 4 4 6 4 6 4-2.8 4-6Z"/>
  <rect x="19" y="18" width="18" height="30" rx="4" fill="rgba(0,0,0,.08)"/>
</svg>
